<?xml version="1.0" encoding="UTF-8" standalone="no"?>
<!-- Created with Inkscape (http://www.inkscape.org/) -->

<svg
   xmlns:dc="http://purl.org/dc/elements/1.1/"
   xmlns:cc="http://creativecommons.org/ns#"
   xmlns:rdf="http://www.w3.org/1999/02/22-rdf-syntax-ns#"
   xmlns:svg="http://www.w3.org/2000/svg"
   xmlns="http://www.w3.org/2000/svg"
   xmlns:sodipodi="http://sodipodi.sourceforge.net/DTD/sodipodi-0.dtd"
   xmlns:inkscape="http://www.inkscape.org/namespaces/inkscape"
   height="55"
   id="Layer_1"
   version="1.1"
   viewBox="0 0 55 55"
   width="55"
   xml:space="preserve"
   inkscape:version="0.47 r22583"
   sodipodi:docname="computer-happy.svg"><metadata
     id="metadata2888"><rdf:RDF><cc:Work
         rdf:about=""><dc:format>image/svg+xml</dc:format><dc:type
           rdf:resource="http://purl.org/dc/dcmitype/StillImage" /><dc:title></dc:title></cc:Work></rdf:RDF></metadata><sodipodi:namedview
     pagecolor="#ffffff"
     bordercolor="#666666"
     borderopacity="1"
     objecttolerance="10"
     gridtolerance="10"
     guidetolerance="10"
     inkscape:pageopacity="0"
     inkscape:pageshadow="2"
     inkscape:window-width="1200"
     inkscape:window-height="783"
     id="namedview2886"
     showgrid="false"
     inkscape:zoom="4.2909091"
     inkscape:cx="27.5"
     inkscape:cy="27.5"
     inkscape:window-x="0"
     inkscape:window-y="0"
     inkscape:window-maximized="1"
     inkscape:current-layer="Layer_1" /><defs
     id="defs9"><inkscape:perspective
       sodipodi:type="inkscape:persp3d"
       inkscape:vp_x="0 : 27.5 : 1"
       inkscape:vp_y="0 : 1000 : 0"
       inkscape:vp_z="55 : 27.5 : 1"
       inkscape:persp3d-origin="27.5 : 18.333333 : 1"
       id="perspective2890" /></defs><g
     id="computer"
     style="display:block">
	<path
   d="m 51.322,41.549 h 0.002 l -0.022,-0.018 c -0.15,-0.109 -12.64,-7.878 -12.64,-7.878 V 9.734 c 0,-1.618 -1.31,-2.932 -2.929,-2.932 h -30.9 c -1.619,0 -2.931,1.314 -2.931,2.932 v 26.313 c 0,1.096 0.608,2.037 1.498,2.541 l -0.02,0.004 14.603,9.102 c 0.691,0.436 1.528,0.688 2.428,0.688 h 28.212 c 2.352,0 4.278,-1.733 4.278,-3.85 10e-4,-1.202 -0.618,-2.275 -1.579,-2.983 z"
   id="module-about_x5F_my_x5F_xo"
   style="fill:#ffffff;stroke:#010101;stroke-width:3.48670006;stroke-linejoin:round" />
	<path
   d="m 7.604,13.446 c 0,-0.616 0.504,-1.12 1.12,-1.12 h 23.117 c 0.615,0 1.118,0.503 1.118,1.12 v 16.499 c 0,0.614 -0.503,1.122 -1.118,1.122 H 8.723 c -0.615,0 -1.12,-0.508 -1.12,-1.122 l 0.001,-16.499 0,0 z"
   id="path5"
   style="fill:#010101" />
</g><g
     id="g3651"><path
   d="m 22,21.5 a 0.5,0.5 0 1 1 -1,0 0.5,0.5 0 1 1 1,0 z"
   id="path2825-3"
   style="fill:#ffffff;fill-opacity:1;stroke:#ffffff;stroke-width:3.5;stroke-miterlimit:4;stroke-opacity:1;stroke-dasharray:none"
   transform="translate(-5.5,-5)" /><path
   d="m 22,21.5 a 0.5,0.5 0 1 1 -1,0 0.5,0.5 0 1 1 1,0 z"
   id="path2825-3-7"
   style="fill:#ffffff;fill-opacity:1;stroke:#ffffff;stroke-width:3.5;stroke-miterlimit:4;stroke-opacity:1;stroke-dasharray:none"
   transform="translate(4.5,-5)" /><path
   d="m 21,20 0,1 0,0"
   id="path3643"
   style="fill:#ffffff;fill-opacity:1;stroke:#ffffff;stroke-width:3.5;stroke-linecap:round;stroke-linejoin:miter;stroke-miterlimit:4;stroke-opacity:1;stroke-dasharray:none" />
<path
   d="m -15.592733,28.013593 a 7,5 0 0 1 -12.796629,0.02882"
   id="path3649"
   style="fill:#010101;fill-opacity:1;stroke:#ffffff;stroke-width:3.5;stroke-linecap:round;stroke-miterlimit:4;stroke-opacity:1;stroke-dasharray:none"
   transform="translate(43,-4)" /><path
   d="m -22,29 c -2.062101,-0.0085 -3.533664,-7.690053 -5.201954,-8.902136 -1.657496,-1.20424 -9.38992,-0.202483 -10.01495,-2.153592 -0.6291,-1.963814 6.221713,-5.737072 6.858942,-7.698263 0.633106,-1.9485034 -2.709072,-8.9929164 -1.046602,-10.19028066 1.673296,-1.20516154 7.378894,4.14434776   9.441013,4.14434696 2.048777,-8e-7 7.715622,-5.3554444 9.368115,-4.14434746 1.663253,1.21898366 -1.661305,8.29841966 -1.024075,10.25961116 0.633108,1.948502 7.4775888,5.683069 6.8364154,7.628933 -0.6453487,1.958534 -8.4056374,0.984357 -10.0739264,2.196441 C -18.514517,21.344954 -19.95124,29.008487 -22,29 z"
   id="path3624"
   style="fill:#010101;fill-opacity:1;stroke:none"
   transform="matrix(0.42707473,0,0,-0.42707473,57.395644,21.385167)" /></g><path
     style="fill:#00ff00"
     d="M 19.786017,46.367023 C 19.401483,46.252618 15.678496,44.031975 11.512712,41.43226 L 3.9385593,36.705508 3.8784028,23.092477 C 3.8235232,10.673558 3.8522451,9.4418775 4.2058364,9.0511635 4.5746877,8.6435874 5.3500656,8.6228814 20.243696,8.6228814 c 13.14503,0 15.722685,0.052927 16.102651,0.3306392 0.435688,0.3184388 0.456682,0.7995902 0.568907,13.0394014 0.07341,8.006828 0.20275,12.79328 0.349577,12.937205 0.128177,0.125642 3.117055,2.015559 6.641949,4.199814 4.890273,3.030335 6.501524,4.144632 6.799799,4.702556 0.469227,0.877686 0.292047,1.516688 -0.606632,2.187835 -0.619665,0.462776 -0.956335,0.474219 -15.124275,0.514007 -7.969777,0.02238 -14.805121,-0.05291 -15.189655,-0.167316 z M 32.617533,30.898217 c 0.431203,-0.31512 0.45551,-0.726499 0.519191,-8.787037 0.0704,-8.911321 0.0041,-9.592087 -0.959832,-9.850637 -0.277906,-0.07454 -5.699373,-0.136966 -12.047706,-0.138717 -10.073066,-0.0028 -11.6083609,0.043 -12.0603816,0.359609 l -0.5179569,0.362791 0,8.826071 c 0,7.712966 0.046186,8.872257 0.3662228,9.192294 0.3233996,0.323399 1.7624962,0.366223 12.3071517,0.366223 9.941514,0 12.016678,-0.05536 12.393311,-0.330597 z"
     id="path2892" /><path
     style="fill:#00ff00"
     d="M 19.786017,46.367023 C 19.401483,46.252618 15.678496,44.031975 11.512712,41.43226 L 3.9385593,36.705508 3.8784028,23.092477 C 3.8235232,10.673558 3.8522451,9.4418775 4.2058364,9.0511635 4.5746877,8.6435874 5.3500656,8.6228814 20.243696,8.6228814 c 13.14503,0 15.722685,0.052927 16.102651,0.3306392 0.435688,0.3184388 0.456682,0.7995902 0.568907,13.0394014 0.07341,8.006828 0.20275,12.79328 0.349577,12.937205 0.128177,0.125642 3.117055,2.015559 6.641949,4.199814 4.890273,3.030335 6.501524,4.144632 6.799799,4.702556 0.469227,0.877686 0.292047,1.516688 -0.606632,2.187835 -0.619665,0.462776 -0.956335,0.474219 -15.124275,0.514007 -7.969777,0.02238 -14.805121,-0.05291 -15.189655,-0.167316 z M 32.617533,30.898217 c 0.431203,-0.31512 0.45551,-0.726499 0.519191,-8.787037 0.0704,-8.911321 0.0041,-9.592087 -0.959832,-9.850637 -0.277906,-0.07454 -5.699373,-0.136966 -12.047706,-0.138717 -10.073066,-0.0028 -11.6083609,0.043 -12.0603816,0.359609 l -0.5179569,0.362791 0,8.826071 c 0,7.712966 0.046186,8.872257 0.3662228,9.192294 0.3233996,0.323399 1.7624962,0.366223 12.3071517,0.366223 9.941514,0 12.016678,-0.05536 12.393311,-0.330597 z"
     id="path2894" /><path
     style="fill:#ffff00"
     d="m 43.90678,20.864674 c 0,-0.188624 0.176577,-1.146551 0.392394,-2.128727 l 0.392395,-1.785775 -1.612258,-1.505019 c -1.526403,-1.424876 -1.588362,-1.522492 -1.163529,-1.833137 0.2468,-0.180465 0.979266,-0.338571 1.627702,-0.351348 2.079928,-0.04098 2.254956,-0.158281 3.276431,-2.195753 0.512712,-1.022674 1.037077,-1.8594065 1.165254,-1.8594065 0.128178,0 0.652543,0.8389835 1.165255,1.8644065 1.017415,2.034832 1.162823,2.128532 3.392957,2.18641 0.584347,0.01516 1.26602,0.177656 1.51483,0.361091 0.430229,0.317185 0.373718,0.40675 -1.153998,1.82898 l -1.60638,1.495463 0.382863,1.69537 c 0.66468,2.943292 0.483279,3.121601 -1.784528,1.754121 -0.743443,-0.448293 -1.565386,-0.815079 -1.82654,-0.815079 -0.261154,0 -1.131181,0.367055 -1.933394,0.815678 -1.569075,0.877477 -2.229454,1.017501 -2.229454,0.472725 z"
     id="path2896" /><path
     style="fill:#0000ff"
     d="m 14.985212,18.353545 c -1.456935,-0.579365 -1.368583,-3.021641 0.135254,-3.738771 0.723651,-0.345084 0.884246,-0.348133 1.642803,-0.03119 1.192859,0.498408 1.657704,1.633105 1.125892,2.748326 -0.570497,1.196344 -1.575489,1.549909 -2.903949,1.021633 l 0,0 z"
     id="path2898" /><path
     style="fill:#0000ff"
     d="m 24.996801,18.35017 c -0.408963,-0.162335 -0.713383,-0.540942 -0.907239,-1.128331 -0.387261,-1.173413 -0.01085,-2.100184 1.060501,-2.611075 0.709647,-0.338407 0.880706,-0.342088 1.616196,-0.03478 0.562984,0.235229 0.931003,0.603249 1.166233,1.166232 0.307508,0.735971 0.303663,0.906471 -0.03653,1.619854 -0.236593,0.496141 -0.642803,0.888845 -1.075406,1.039651 -0.80991,0.282337 -0.995858,0.277081 -1.82376,-0.05155 l 0,0 z"
     id="path2900" /><path
     style="fill:#0000ff"
     d="m 19.919457,21.991876 c -0.729662,-0.927615 -0.664325,-2.472208 0.13104,-3.097843 0.337731,-0.265659 0.786324,-0.483016 0.996873,-0.483016 0.688329,0 1.397082,0.696334 1.552618,1.525413 0.388578,2.071296 -1.518046,3.533306 -2.680531,2.055446 z"
     id="path2902" /><path
     style="fill:#0000ff"
     d="m 19.552966,28.512704 c -2.966125,-0.437825 -6.186243,-2.521794 -6.429384,-4.160913 -0.111169,-0.749439 0.220523,-1.42295 0.83972,-1.705075 0.729223,-0.332256 1.41687,-0.07738 2.296088,0.851053 1.725707,1.8223 5.416178,2.341234 7.924064,1.11424 0.723221,-0.353839 1.422335,-0.844 1.553587,-1.089247 0.326911,-0.610838 1.54643,-1.205633 2.107087,-1.027688 0.67455,0.214094 1.224316,1.170969 1.056631,1.83908 -0.621353,2.475666 -5.651444,4.724163 -9.347793,4.17855 z"
     id="path2904" /></svg>